2.2Hzlow3min_grf.mot
version=1
nRows=15
nColumns 19
inDegrees=yes
endheader
time	1_ground_force_vx	1_ground_force_vy	1_ground_force_vz	1_ground_force_px	1_ground_force_py	1_ground_force_pz	1_ground_torque_x	1_ground_torque_y	1_ground_torque_z	2_ground_force_vx	2_ground_force_vy	2_ground_force_vz	2_ground_force_px	2_ground_force_py	2_ground_force_pz	2_ground_torque_x	2_ground_torque_y	2_ground_torque_z
            1.253500	            0.139785	            1.978427	            1.062847	           -0.233013	            0.005581	           -0.255695	           -0.121686	           -0.036251	           -0.144444	            0.232653	            0.371318	           -0.608851	           -0.232311	            0.006130	           -0.833667	           -0.262842	           -0.038895	            0.037677
            1.254000	            0.185224	            1.078091	            0.829589	           -0.233013	            0.005581	           -0.255695	           -0.242960	           -0.054346	           -0.236225	            0.231365	            0.739280	           -0.513681	           -0.232311	            0.006130	           -0.833667	           -0.244158	           -0.019653	           -0.037664
            1.254500	            0.230854	            1.619093	            0.785938	           -0.233013	            0.005581	           -0.255695	           -0.260073	           -0.054410	           -0.215449	            0.514252	            0.189524	           -0.985052	           -0.232311	            0.006130	           -0.833667	           -0.300455	           -0.029511	            0.018877
            1.255000	            0.231360	            0.717175	            0.919641	           -0.233013	            0.005581	           -0.255695	           -0.208943	           -0.091530	           -0.178107	            0.138891	            0.371482	           -0.749595	           -0.232311	            0.006130	           -0.833667	           -0.225057	           -0.104726	           -0.019125
            1.255500	            0.139039	            1.078672	            0.692135	           -0.233013	            0.005581	           -0.255695	           -0.124268	           -0.119375	           -0.163561	            0.327538	            0.004532	           -0.938702	           -0.232311	            0.006130	           -0.833667	           -0.243758	           -0.123834	            0.018516
            1.256000	            0.231327	            0.897441	            0.920414	           -0.233013	            0.005581	           -0.255695	           -0.115395	           -0.035729	           -0.253299	            0.326853	            0.188847	           -0.984973	           -0.232311	            0.006130	           -0.833667	           -0.244065	           -0.038760	            0.018819
            1.256500	            0.047844	           -0.363865	            0.777891	           -0.233013	            0.005581	           -0.255695	           -0.183638	           -0.045398	           -0.185752	            0.186344	            0.188005	           -0.891057	           -0.232311	            0.006130	           -0.833667	           -0.225271	           -0.038759	            0.037661
            1.257000	            0.093942	            1.978418	            1.062961	           -0.233013	            0.005581	           -0.255695	           -0.140603	           -0.036034	           -0.202746	            0.184974	            0.556636	           -0.983599	           -0.232311	            0.006130	           -0.833667	           -0.225449	           -0.000612	           -0.056455
            1.257500	            0.048312	            1.437416	            1.106612	           -0.233013	            0.005581	           -0.255695	           -0.161026	           -0.082194	           -0.223626	            0.235250	           -0.364773	           -0.752263	           -0.232311	            0.006130	           -0.833667	           -0.187665	           -0.057260	           -0.037823
            1.258000	            0.139186	            0.898209	            0.737218	           -0.233013	            0.005581	           -0.255695	           -0.126393	           -0.091160	           -0.276216	            0.374429	            0.004366	           -0.844865	           -0.232311	            0.006130	           -0.833667	           -0.225398	           -0.010199	           -0.018788
            1.258500	            0.321986	            2.160694	            0.604606	           -0.233013	            0.005581	           -0.255695	           -0.252541	           -0.063697	           -0.192819	            0.281312	           -0.179451	           -1.033195	           -0.232311	            0.006130	           -0.833667	           -0.187521	           -0.095138	           -0.019108
            1.259000	            0.368155	            1.619513	            0.693885	           -0.233013	            0.005581	           -0.255695	           -0.162049	           -0.082464	           -0.115958	            0.094782	           -0.365950	           -0.564491	           -0.232311	            0.006130	           -0.833667	           -0.206348	           -0.085686	           -0.037916
            1.259500	            0.138958	            0.898602	            0.645506	           -0.233013	            0.005581	           -0.255695	           -0.197300	           -0.036200	           -0.163016	            0.237846	           -1.100864	           -0.895676	           -0.232311	            0.006130	           -0.833667	           -0.263010	           -0.009999	           -0.113023
            1.260000	            0.002062	            1.798528	            0.970704	           -0.233013	            0.005581	           -0.255695	           -0.117949	           -0.063564	           -0.263217	            0.281956	           -0.363432	           -1.080780	           -0.232311	            0.006130	           -0.833667	           -0.262951	           -0.019653	           -0.056506
            1.260500	            0.139153	            1.078475	            0.737991	           -0.233013	            0.005581	           -0.255695	           -0.088736	           -0.063825	           -0.182209	            0.045212	            0.370976	           -0.702627	           -0.232311	            0.006130	           -0.833667	           -0.131471	           -0.019044	           -0.094263
